<svg width="16" height="16" viewBox="0 0 16 16" fill="none" xmlns="http://www.w3.org/2000/svg">
<path fill-rule="evenodd" clip-rule="evenodd" d="M14.364 3.40733C14.5515 3.59486 14.6568 3.84917 14.6568 4.11433C14.6568 4.3795 14.5515 4.63381 14.364 4.82133L6.86867 12.3167C6.76962 12.4157 6.65202 12.4943 6.52259 12.548C6.39316 12.6016 6.25444 12.6292 6.11434 12.6292C5.97424 12.6292 5.83552 12.6016 5.70609 12.548C5.57666 12.4943 5.45906 12.4157 5.36001 12.3167L1.63601 8.59333C1.5405 8.50109 1.46431 8.39074 1.41191 8.26874C1.3595 8.14673 1.33191 8.01551 1.33076 7.88273C1.3296 7.74996 1.3549 7.61828 1.40519 7.49538C1.45547 7.37248 1.52972 7.26083 1.62361 7.16694C1.71751 7.07305 1.82916 6.99879 1.95205 6.94851C2.07495 6.89823 2.20663 6.87293 2.33941 6.87408C2.47219 6.87524 2.60341 6.90282 2.72541 6.95523C2.84742 7.00764 2.95776 7.08382 3.05001 7.17933L6.11401 10.2433L12.9493 3.40733C13.0422 3.31441 13.1525 3.24069 13.2738 3.1904C13.3952 3.1401 13.5253 3.11421 13.6567 3.11421C13.7881 3.11421 13.9181 3.1401 14.0395 3.1904C14.1609 3.24069 14.2711 3.31441 14.364 3.40733Z" fill="#323749"/>
</svg>
