<svg width="13" height="14" viewBox="0 0 13 14" fill="none" xmlns="http://www.w3.org/2000/svg">
<path d="M7.25 7.70312H7.20312V7.75V12.5C7.20312 12.6865 7.12905 12.8653 6.99718 12.9972C6.86532 13.129 6.68648 13.2031 6.5 13.2031C6.31352 13.2031 6.13468 13.129 6.00282 12.9972C5.87095 12.8653 5.79688 12.6865 5.79688 12.5V7.75V7.70312H5.75H1C0.81352 7.70312 0.634677 7.62905 0.502816 7.49718C0.370954 7.36532 0.296875 7.18648 0.296875 7C0.296875 6.81352 0.370954 6.63468 0.502816 6.50282C0.634677 6.37095 0.81352 6.29688 1 6.29688H5.75H5.79688V6.25V1.5C5.79688 1.31352 5.87095 1.13468 6.00282 1.00282C6.13468 0.870954 6.31352 0.796875 6.5 0.796875C6.68648 0.796875 6.86532 0.870954 6.99718 1.00282C7.12905 1.13468 7.20312 1.31352 7.20312 1.5V6.25V6.29688H7.25H12C12.1865 6.29688 12.3653 6.37095 12.4972 6.50282C12.629 6.63468 12.7031 6.81352 12.7031 7C12.7031 7.18648 12.629 7.36532 12.4972 7.49718C12.3653 7.62905 12.1865 7.70312 12 7.70312H7.25Z" fill="white" stroke="white" stroke-width="0.09375"/>
</svg>
